<svg width="33" height="31" viewBox="0 0 33 31" fill="none" xmlns="http://www.w3.org/2000/svg">
<path d="M16.5 3.875C24.475 3.875 30.9388 8.60767 30.9388 14.4473C30.9388 20.2856 24.475 25.0183 16.5013 25.0183C15.7074 25.0186 14.9142 24.9712 14.1267 24.8762L8.06572 28.6001C7.37684 28.9424 7.13347 28.9049 7.41672 28.0666L8.64322 23.3159C4.68322 21.43 2.06384 18.1621 2.06384 14.4473C2.06384 8.60896 8.52634 3.875 16.5013 3.875M24.6248 14.2858L26.6461 12.4465C26.7627 12.3327 26.8278 12.1808 26.8276 12.0229C26.8274 11.8649 26.7619 11.7132 26.645 11.5997C26.5281 11.4862 26.3688 11.4197 26.2008 11.4143C26.0327 11.4089 25.869 11.465 25.7441 11.5708L23.0931 13.981V11.9892C23.0931 11.8276 23.0247 11.6725 22.903 11.5582C22.7813 11.4438 22.6162 11.3796 22.4441 11.3796C22.272 11.3796 22.1069 11.4438 21.9852 11.5582C21.8635 11.6725 21.7951 11.8276 21.7951 11.9892V15.292C21.7708 15.3863 21.7708 15.4846 21.7951 15.5788V17.4375C21.7951 17.5992 21.8635 17.7543 21.9852 17.8686C22.1069 17.9829 22.272 18.0472 22.4441 18.0472C22.6162 18.0472 22.7813 17.9829 22.903 17.8686C23.0247 17.7543 23.0931 17.5992 23.0931 17.4375V15.677L23.6802 15.1435L25.6437 17.7695C25.6927 17.835 25.755 17.8909 25.827 17.9338C25.899 17.9768 25.9793 18.006 26.0633 18.0198C26.1474 18.0335 26.2334 18.0317 26.3167 18.0142C26.3999 17.9967 26.4787 17.9641 26.5485 17.918C26.6183 17.8719 26.6777 17.8134 26.7234 17.7458C26.7691 17.6782 26.8002 17.6027 26.8149 17.5238C26.8296 17.4449 26.8276 17.364 26.809 17.2858C26.7904 17.2076 26.7556 17.1336 26.7066 17.0681L24.6248 14.2858ZM20.5576 16.771H18.5501V12.0086C18.5424 11.852 18.4707 11.7041 18.35 11.5958C18.2293 11.4875 18.0687 11.427 17.9018 11.427C17.7348 11.427 17.5743 11.4875 17.4536 11.5958C17.3328 11.7041 17.2612 11.852 17.2535 12.0086V17.3807C17.2535 17.7165 17.5422 17.9903 17.9011 17.9903H20.5576C20.7297 17.9903 20.8948 17.9261 21.0165 17.8118C21.1382 17.6974 21.2066 17.5424 21.2066 17.3807C21.2066 17.219 21.1382 17.0639 21.0165 16.9496C20.8948 16.8352 20.7297 16.771 20.5576 16.771ZM12.5042 15.3618L13.4612 13.1556L14.3385 15.3605L12.5042 15.3618ZM15.9733 15.9908L15.9761 15.9702C15.9758 15.8166 15.9133 15.6688 15.8015 15.5568L14.3632 11.9402C14.3029 11.7678 14.1881 11.6169 14.034 11.5075C13.88 11.398 13.694 11.3354 13.5011 11.3279C13.3067 11.3271 13.1167 11.3819 12.9563 11.4851C12.7959 11.5882 12.6728 11.7348 12.6032 11.9053L10.318 17.1688C10.2529 17.3185 10.2538 17.4864 10.3204 17.6355C10.3871 17.7846 10.514 17.9027 10.6734 17.9639C10.8328 18.025 11.0115 18.0242 11.1702 17.9616C11.3289 17.8989 11.4546 17.7797 11.5197 17.63L11.9762 16.5798H14.8225L15.2322 17.6132C15.2602 17.6904 15.3043 17.7616 15.3621 17.8225C15.4199 17.8834 15.4901 17.9328 15.5685 17.9678C15.647 18.0027 15.7321 18.0226 15.8189 18.026C15.9057 18.0295 15.9923 18.0166 16.0737 17.9881C16.155 17.9596 16.2295 17.916 16.2926 17.8599C16.3557 17.8039 16.4061 17.7365 16.441 17.6618C16.4759 17.5871 16.4945 17.5066 16.4956 17.425C16.4968 17.3434 16.4805 17.2625 16.4477 17.1869L15.9733 15.9908ZM11.4042 12.0151C11.4042 11.8536 11.336 11.6987 11.2146 11.5844C11.0932 11.4701 10.9285 11.4058 10.7566 11.4054H6.29472C6.12259 11.4054 5.95752 11.4696 5.83581 11.584C5.71409 11.6983 5.64572 11.8534 5.64572 12.0151C5.64572 12.1768 5.71409 12.3318 5.83581 12.4462C5.95752 12.5605 6.12259 12.6248 6.29472 12.6248H7.88972V17.4504C7.88972 17.6121 7.95809 17.7672 8.07981 17.8815C8.20152 17.9959 8.36659 18.0601 8.53872 18.0601C8.71084 18.0601 8.87592 17.9959 8.99763 17.8815C9.11934 17.7672 9.18772 17.6121 9.18772 17.4504V12.6248H10.7552C10.9273 12.6248 11.0924 12.5605 11.2141 12.4462C11.3358 12.3318 11.4042 12.1768 11.4042 12.0151Z" fill="black"/>
</svg>
