<svg width="198" height="81" viewBox="0 0 198 81" fill="none" xmlns="http://www.w3.org/2000/svg">
<path d="M6.16 29H0.8L10.72 0.68H17.04L26.96 29H21.52L19.2 22.04H8.52L6.16 29ZM9.92 17.88H17.8L14 6.52H13.76L9.92 17.88ZM35.4534 0.68V29H30.4134V0.68H35.4534ZM74.6459 25.928V27.976H49.2379V25.928H60.6939V19.144H63.1259V25.928H74.6459ZM50.4539 18.184C55.1579 17.352 60.6299 13.48 60.6299 9.032V8.328H51.2859V6.28H72.4699V8.328H63.1259V9.032C63.1579 13.48 68.6299 17.288 73.4299 18.056L72.4059 19.976C68.1819 19.144 63.7019 16.488 61.9099 12.648C60.0859 16.52 55.6379 19.272 51.4779 20.104L50.4539 18.184ZM99.1662 6.6V9.672C99.1662 13.224 99.1662 16.808 98.2062 21.96L95.7742 21.704C96.7662 16.776 96.7662 13.128 96.7342 9.672V8.584H79.5182V6.6H99.1662ZM76.8942 27.592V25.544H83.1662V16.392H85.5982V25.544H90.0782V16.392H92.5102V25.544H102.174V27.592H76.8942ZM113.638 5.768C117.99 5.8 121.062 8.456 121.126 12.296C121.062 16.168 117.99 18.824 113.638 18.824C109.222 18.824 106.086 16.168 106.086 12.296C106.086 8.456 109.222 5.8 113.638 5.768ZM104.678 23.368C109.798 23.4 116.87 23.336 123.046 22.408L123.238 24.264C116.87 25.448 110.022 25.48 104.998 25.48L104.678 23.368ZM108.518 12.296C108.518 14.888 110.662 16.68 113.638 16.712C116.55 16.68 118.694 14.888 118.694 12.296C118.694 9.736 116.55 7.944 113.638 7.944C110.662 7.944 108.518 9.736 108.518 12.296ZM124.838 31.56V3.784H127.334V31.56H124.838ZM3.2 45.84H7V71.04H3.2V45.84ZM16.72 71C11.52 71 8.6 67.52 8.76 61.56C8.92 56.36 12.68 53.32 17.8 53.32C18.48 53.32 19.16 53.36 19.88 53.48L19.28 56.72C18.8 56.64 18.36 56.6 17.92 56.6C14.12 56.6 12.64 59.2 12.48 61.64C12.28 65.2 13.88 67.56 16.96 67.56C20.28 67.56 21.64 64.28 21.64 60.48V45.44H25.44V60.6C25.44 66.36 22.8 71 16.72 71ZM33.68 42.92V79H29.88V42.92H33.68ZM55.2972 76.52C56.2572 76.68 57.4572 76.72 58.7772 76.72C62.6972 76.72 67.8172 76.08 72.1772 74.48L73.1372 77.84C67.9772 79.24 63.0972 80.12 58.3772 80.12C56.8572 80.12 55.3772 80.04 53.8972 79.84C47.0572 79 45.7772 74.96 47.2972 69.12H65.5772C65.8172 68.28 66.0172 67.12 66.0172 65.84H47.4972V62.44H70.1772C70.1772 64.36 69.9372 66.76 69.2172 69.12H70.5372V72.44H50.7772C50.4172 74.76 51.6172 76 55.2972 76.52ZM41.0172 45.2C45.7772 44.44 50.3772 42.84 54.0172 42.84C55.8572 42.84 57.4572 43.24 58.6972 44.4C62.2572 47.72 60.9772 50.96 58.8172 56.16H61.4972V59.56H40.9772V45.2H41.0172ZM66.7772 42.92H70.5772V60.84H66.7772V42.92ZM54.9372 56.16C56.0572 53.84 58.9372 49.08 56.0972 47C55.3772 46.48 54.4572 46.24 53.2572 46.24C51.2972 46.24 48.5772 46.92 44.7772 48V56.16H54.9372ZM97.4666 71.72C97.4666 66.8 101.347 62.92 108.307 62.92C115.267 62.92 119.147 66.8 119.147 71.72C119.147 76.64 115.267 80.56 108.307 80.56C101.347 80.56 97.4666 76.64 97.4666 71.72ZM89.3866 46.32C93.7066 44.84 98.2266 43.6 101.867 43.6C104.787 43.6 107.187 44.4 108.507 46.6C111.707 51.92 104.307 59.64 91.3866 67.24L89.1866 63.96C100.147 58.12 106.947 51.88 104.827 48.24C104.227 47.24 102.987 46.84 101.347 46.84C98.5066 46.84 94.3866 48.04 90.3866 49.48L89.3866 46.32ZM115.067 42.92H118.867V51.08H124.547V54.48H118.867V62.6H115.067V42.92ZM115.227 71.72C115.227 68.04 111.987 66.2 108.307 66.2C104.627 66.2 101.387 68.04 101.387 71.72C101.387 75.4 104.627 77.28 108.307 77.28C111.987 77.28 115.227 75.4 115.227 71.72ZM154.204 69.48C149.204 71.68 143.364 71.92 137.964 71.92H126.644V68.52H138.204C144.724 68.52 149.244 67.88 153.004 66.24L154.204 69.48ZM128.044 54.48C128.044 48.76 132.924 44.6 139.204 44.6C145.484 44.6 150.364 48.76 150.364 54.48C150.364 60.2 145.484 64.36 139.204 64.36C132.924 64.36 128.044 60.2 128.044 54.48ZM158.884 42.92V79H155.084V42.92H158.884ZM131.924 54.48C131.924 58.76 135.404 60.96 139.204 60.96C143.004 60.96 146.484 58.76 146.484 54.48C146.484 50.2 143.004 48 139.204 48C135.404 48 131.924 50.2 131.924 54.48ZM180.141 76.52C181.101 76.68 182.301 76.72 183.621 76.72C187.541 76.72 192.661 76.08 197.021 74.48L197.981 77.84C192.821 79.24 187.941 80.12 183.221 80.12C181.701 80.12 180.221 80.04 178.741 79.84C171.901 79 170.621 74.96 172.141 69.12H190.421C190.661 68.28 190.861 67.12 190.861 65.84H172.341V62.44H195.021C195.021 64.36 194.781 66.76 194.061 69.12H195.381V72.44H175.621C175.261 74.76 176.461 76 180.141 76.52ZM189.501 57.08C187.221 58.92 184.781 59.8 182.621 59.8C178.381 59.8 176.101 56.76 175.581 52.72C172.501 57.12 168.381 60.32 164.421 62.8L162.461 59.76C169.461 55.68 174.261 50.32 176.141 42.44L179.741 43.24C179.421 44.68 179.021 46 178.501 47.24C178.181 52 179.181 55.4 181.701 56.2C182.141 56.32 182.581 56.4 183.021 56.4C184.541 56.4 186.221 55.68 187.781 54.44L189.501 57.08ZM191.621 42.92H195.421V60.84H191.621V42.92Z" fill="black"/>
</svg>
